<svg width="112" height="259" viewBox="0 0 112 259" fill="none" xmlns="http://www.w3.org/2000/svg">
<path d="M35.2227 3.24H37.1227V15H39.7627V3.24H41.6627V0.999999H35.2227V3.24ZM46.0381 15H48.6781V9.16H50.1181V15H52.7581V0.999999H50.1181V6.92H48.6781V0.999999H46.0381V15ZM57.4897 15H62.9697V12.76H60.1297V9H62.7697V6.76H60.1297V3.24H62.8897V0.999999H57.4897V15ZM73.3616 15H78.0416C79.3616 15 80.0816 14.28 80.0816 12.96V9.64C80.0816 8.7 79.7416 8.12 78.9816 7.82C79.7416 7.52 80.0416 6.88 80.0416 6.04V3.04C80.0416 1.72 79.3216 0.999999 78.0016 0.999999H73.3616V15ZM76.0016 6.72V3.24H77.0416C77.3016 3.24 77.4416 3.38 77.4416 3.64V6.32C77.4416 6.58 77.3016 6.72 77.0416 6.72H76.0016ZM76.0016 12.76V8.96H77.0416C77.3016 8.96 77.4416 9.1 77.4416 9.36V12.36C77.4416 12.62 77.3016 12.76 77.0416 12.76H76.0016ZM84.7545 15H90.2345V12.76H87.3945V9H90.0345V6.76H87.3945V3.24H90.1545V0.999999H84.7545V15ZM96.4022 15.08H99.4422C100.602 15.08 101.242 14.44 101.242 13.28V9.78C101.242 9.02 100.982 8.48 100.362 8.02L97.4622 5.94C97.2822 5.8 97.2222 5.66 97.2222 5.46V3.48C97.2222 3.28 97.3422 3.16 97.5422 3.16H98.3022C98.5222 3.16 98.6222 3.28 98.6222 3.48V6H101.142V2.72C101.142 1.56 100.502 0.919999 99.3422 0.919999H96.4222C95.2622 0.919999 94.6222 1.56 94.6222 2.72V5.96C94.6222 6.72 94.9022 7.26 95.5222 7.7L98.4022 9.8C98.5822 9.94 98.6422 10.08 98.6422 10.28V12.52C98.6422 12.72 98.5422 12.84 98.3222 12.84H97.5222C97.3222 12.84 97.2022 12.72 97.2022 12.52V9.8H94.6022V13.28C94.6022 14.44 95.2422 15.08 96.4022 15.08ZM105.345 3.24H107.245V15H109.885V3.24H111.785V0.999999H105.345V3.24ZM38.4342 42H43.1142C44.4342 42 45.1542 41.28 45.1542 39.96V30.04C45.1542 28.72 44.4342 28 43.1142 28H38.4342V42ZM41.0742 39.76V30.24H42.1942C42.4142 30.24 42.5142 30.36 42.5142 30.56V39.44C42.5142 39.64 42.4142 39.76 42.1942 39.76H41.0742ZM49.8467 42H55.3267V39.76H52.4867V36H55.1267V33.76H52.4867V30.24H55.2467V28H49.8467V42ZM61.4944 42.08H64.5344C65.6944 42.08 66.3344 41.44 66.3344 40.28V36.78C66.3344 36.02 66.0744 35.48 65.4544 35.02L62.5544 32.94C62.3744 32.8 62.3144 32.66 62.3144 32.46V30.48C62.3144 30.28 62.4344 30.16 62.6344 30.16H63.3944C63.6144 30.16 63.7144 30.28 63.7144 30.48V33H66.2344V29.72C66.2344 28.56 65.5944 27.92 64.4344 27.92H61.5144C60.3544 27.92 59.7144 28.56 59.7144 29.72V32.96C59.7144 33.72 59.9944 34.26 60.6144 34.7L63.4944 36.8C63.6744 36.94 63.7344 37.08 63.7344 37.28V39.52C63.7344 39.72 63.6344 39.84 63.4144 39.84H62.6144C62.4144 39.84 62.2944 39.72 62.2944 39.52V36.8H59.6944V40.28C59.6944 41.44 60.3344 42.08 61.4944 42.08ZM70.9334 42H73.5734V28H70.9334V42ZM80.3225 42.08H81.8025L82.6025 41.08V42H85.0025V34.44H81.5225V36.68H82.3625V39.84H81.2425C81.0425 39.84 80.9225 39.72 80.9225 39.52V30.48C80.9225 30.28 81.0425 30.16 81.2425 30.16H82.0425C82.2625 30.16 82.3625 30.28 82.3625 30.48V33.28H85.0025V29.96C85.0025 28.64 84.2825 27.92 82.9625 27.92H80.3225C79.0025 27.92 78.2825 28.64 78.2825 29.96V40.04C78.2825 41.36 79.0025 42.08 80.3225 42.08ZM89.6764 42H92.3164V33.28L94.0364 38.36V42H96.6764V28H94.0364V33.08L92.3164 28H89.6764V42ZM103.121 42.08H106.161C107.321 42.08 107.961 41.44 107.961 40.28V36.78C107.961 36.02 107.701 35.48 107.081 35.02L104.181 32.94C104.001 32.8 103.941 32.66 103.941 32.46V30.48C103.941 30.28 104.061 30.16 104.261 30.16H105.021C105.241 30.16 105.341 30.28 105.341 30.48V33H107.861V29.72C107.861 28.56 107.221 27.92 106.061 27.92H103.141C101.981 27.92 101.341 28.56 101.341 29.72V32.96C101.341 33.72 101.621 34.26 102.241 34.7L105.121 36.8C105.301 36.94 105.361 37.08 105.361 37.28V39.52C105.361 39.72 105.261 39.84 105.041 39.84H104.241C104.041 39.84 103.921 39.72 103.921 39.52V36.8H101.321V40.28C101.321 41.44 101.961 42.08 103.121 42.08ZM14.6209 69.08H17.2609C18.5809 69.08 19.3009 68.36 19.3009 67.04V63H16.6609V66.52C16.6609 66.72 16.5609 66.84 16.3409 66.84H15.5409C15.3409 66.84 15.2209 66.72 15.2209 66.52V57.48C15.2209 57.28 15.3409 57.16 15.5409 57.16H16.3409C16.5609 57.16 16.6609 57.28 16.6609 57.48V61H19.3009V56.96C19.3009 55.64 18.5809 54.92 17.2609 54.92H14.6209C13.3009 54.92 12.5809 55.64 12.5809 56.96V67.04C12.5809 68.36 13.3009 69.08 14.6209 69.08ZM25.9358 69.08H28.5958C29.9158 69.08 30.6358 68.36 30.6358 67.04V56.96C30.6358 55.64 29.9158 54.92 28.5958 54.92H25.9358C24.6158 54.92 23.8958 55.64 23.8958 56.96V67.04C23.8958 68.36 24.6158 69.08 25.9358 69.08ZM26.8558 66.84C26.6558 66.84 26.5358 66.72 26.5358 66.52V57.48C26.5358 57.28 26.6558 57.16 26.8558 57.16H27.6758C27.8758 57.16 27.9958 57.28 27.9958 57.48V66.52C27.9958 66.72 27.8758 66.84 27.6758 66.84H26.8558ZM35.3092 69H37.8292V59.94L39.0292 69H41.2292L42.4292 59.94V69H45.0692V55H41.0892L40.1692 63.46L39.1492 55H35.3092V69ZM49.8077 69H55.2877V66.76H52.4477V63H55.0877V60.76H52.4477V57.24H55.2077V55H49.8077V69ZM65.6795 69H68.3195V63H70.9595V60.76H68.3195V57.24H71.0795V55H65.6795V69ZM75.4709 69H78.1109V63.78H78.7709L80.0309 69H82.5109L81.1509 63.56C81.8109 63.28 82.1709 62.64 82.1709 61.74V57.04C82.1709 55.72 81.4509 55 80.1309 55H75.4709V69ZM78.1109 61.54V57.24H79.2109C79.4109 57.24 79.5309 57.36 79.5309 57.56V61.22C79.5309 61.42 79.4109 61.54 79.2109 61.54H78.1109ZM88.6881 69.08H91.3481C92.6681 69.08 93.3881 68.36 93.3881 67.04V56.96C93.3881 55.64 92.6681 54.92 91.3481 54.92H88.6881C87.3681 54.92 86.6481 55.64 86.6481 56.96V67.04C86.6481 68.36 87.3681 69.08 88.6881 69.08ZM89.6081 66.84C89.4081 66.84 89.2881 66.72 89.2881 66.52V57.48C89.2881 57.28 89.4081 57.16 89.6081 57.16H90.4281C90.6281 57.16 90.7481 57.28 90.7481 57.48V66.52C90.7481 66.72 90.6281 66.84 90.4281 66.84H89.6081ZM98.0616 69H100.582V59.94L101.782 69H103.982L105.182 59.94V69H107.822V55H103.842L102.922 63.46L101.902 55H98.0616V69ZM11.1414 84.24H13.0414V96H15.6814V84.24H17.5814V82H11.1414V84.24ZM21.9569 96H24.5969V90.16H26.0369V96H28.6769V82H26.0369V87.92H24.5969V82H21.9569V96ZM33.4084 96H38.8884V93.76H36.0484V90H38.6884V87.76H36.0484V84.24H38.8084V82H33.4084V96ZM48.6664 84.24H50.5664V96H53.2064V84.24H55.1064V82H48.6664V84.24ZM59.4819 96H62.1219V90.16H63.5619V96H66.2019V82H63.5619V87.92H62.1219V82H59.4819V96ZM70.9334 96H73.5734V82H70.9334V96ZM78.3225 96H80.9625V87.28L82.6825 92.36V96H85.3225V82H82.6825V87.08L80.9625 82H78.3225V96ZM92.067 96.08H93.547L94.347 95.08V96H96.747V88.44H93.267V90.68H94.107V93.84H92.987C92.787 93.84 92.667 93.72 92.667 93.52V84.48C92.667 84.28 92.787 84.16 92.987 84.16H93.787C94.007 84.16 94.107 84.28 94.107 84.48V87.28H96.747V83.96C96.747 82.64 96.027 81.92 94.707 81.92H92.067C90.747 81.92 90.027 82.64 90.027 83.96V94.04C90.027 95.36 90.747 96.08 92.067 96.08ZM103.121 96.08H106.161C107.321 96.08 107.961 95.44 107.961 94.28V90.78C107.961 90.02 107.701 89.48 107.081 89.02L104.181 86.94C104.001 86.8 103.941 86.66 103.941 86.46V84.48C103.941 84.28 104.061 84.16 104.261 84.16H105.021C105.241 84.16 105.341 84.28 105.341 84.48V87H107.861V83.72C107.861 82.56 107.221 81.92 106.061 81.92H103.141C101.981 81.92 101.341 82.56 101.341 83.72V86.96C101.341 87.72 101.621 88.26 102.241 88.7L105.121 90.8C105.301 90.94 105.361 91.08 105.361 91.28V93.52C105.361 93.72 105.261 93.84 105.041 93.84H104.241C104.041 93.84 103.921 93.72 103.921 93.52V90.8H101.321V94.28C101.321 95.44 101.961 96.08 103.121 96.08ZM0.100002 111.24H2V123H4.64V111.24H6.54V109H0.100002V111.24ZM10.9155 123H13.5555V117.16H14.9955V123H17.6355V109H14.9955V114.92H13.5555V109H10.9155V123ZM21.787 123H24.427L24.687 120.76H26.487L26.747 123H29.387L27.287 109H23.887L21.787 123ZM24.907 118.52L25.587 112.52L26.267 118.52H24.907ZM32.3063 111.24H34.2063V123H36.8463V111.24H38.7463V109H32.3063V111.24ZM49.0459 123H51.6859V118.12H53.7059C55.0259 118.12 55.7459 117.4 55.7459 116.08V111.04C55.7459 109.72 55.0259 109 53.7059 109H49.0459V123ZM51.6859 115.88V111.24H52.7859C52.9859 111.24 53.1059 111.36 53.1059 111.56V115.56C53.1059 115.76 52.9859 115.88 52.7859 115.88H51.6859ZM60.3022 123H65.7822V120.76H62.9422V117H65.5822V114.76H62.9422V111.24H65.7022V109H60.3022V123ZM72.2498 123.08H74.9098C76.2298 123.08 76.9498 122.36 76.9498 121.04V110.96C76.9498 109.64 76.2298 108.92 74.9098 108.92H72.2498C70.9298 108.92 70.2098 109.64 70.2098 110.96V121.04C70.2098 122.36 70.9298 123.08 72.2498 123.08ZM73.1698 120.84C72.9698 120.84 72.8498 120.72 72.8498 120.52V111.48C72.8498 111.28 72.9698 111.16 73.1698 111.16H73.9898C74.1898 111.16 74.3098 111.28 74.3098 111.48V120.52C74.3098 120.72 74.1898 120.84 73.9898 120.84H73.1698ZM81.6233 123H84.2633V118.12H86.2833C87.6033 118.12 88.3233 117.4 88.3233 116.08V111.04C88.3233 109.72 87.6033 109 86.2833 109H81.6233V123ZM84.2633 115.88V111.24H85.3633C85.5633 111.24 85.6833 111.36 85.6833 111.56V115.56C85.6833 115.76 85.5633 115.88 85.3633 115.88H84.2633ZM92.8795 123H98.2595V120.76H95.5195V109H92.8795V123ZM102.612 123H108.092V120.76H105.252V117H107.892V114.76H105.252V111.24H108.012V109H102.612V123ZM27.4725 150.08H30.1125C31.4325 150.08 32.1525 149.36 32.1525 148.04V144H29.5125V147.52C29.5125 147.72 29.4125 147.84 29.1925 147.84H28.3925C28.1925 147.84 28.0725 147.72 28.0725 147.52V138.48C28.0725 138.28 28.1925 138.16 28.3925 138.16H29.1925C29.4125 138.16 29.5125 138.28 29.5125 138.48V142H32.1525V137.96C32.1525 136.64 31.4325 135.92 30.1125 135.92H27.4725C26.1525 135.92 25.4325 136.64 25.4325 137.96V148.04C25.4325 149.36 26.1525 150.08 27.4725 150.08ZM36.1097 150H38.7497L39.0097 147.76H40.8097L41.0697 150H43.7097L41.6097 136H38.2097L36.1097 150ZM39.2297 145.52L39.9097 139.52L40.5897 145.52H39.2297ZM47.8483 150H50.4883V141.28L52.2083 146.36V150H54.8483V136H52.2083V141.08L50.4883 136H47.8483V150ZM59.3328 141.36C60.9528 141.36 61.8528 140.34 61.8528 138.66V136H59.3328V139H60.3728C60.3728 139.78 60.0528 140.16 59.3328 140.16V141.36ZM65.9578 138.24H67.8578V150H70.4978V138.24H72.3978V136H65.9578V138.24ZM82.6975 150H87.3775C88.6975 150 89.4175 149.28 89.4175 147.96V138.04C89.4175 136.72 88.6975 136 87.3775 136H82.6975V150ZM85.3375 147.76V138.24H86.4575C86.6775 138.24 86.7775 138.36 86.7775 138.56V147.44C86.7775 147.64 86.6775 147.76 86.4575 147.76H85.3375ZM96.11 150.08H98.77C100.09 150.08 100.81 149.36 100.81 148.04V137.96C100.81 136.64 100.09 135.92 98.77 135.92H96.11C94.79 135.92 94.07 136.64 94.07 137.96V148.04C94.07 149.36 94.79 150.08 96.11 150.08ZM97.03 147.84C96.83 147.84 96.71 147.72 96.71 147.52V138.48C96.71 138.28 96.83 138.16 97.03 138.16H97.85C98.05 138.16 98.17 138.28 98.17 138.48V147.52C98.17 147.72 98.05 147.84 97.85 147.84H97.03ZM105.403 152.36C107.023 152.36 107.923 151.34 107.923 149.66V147H105.403V150H106.443C106.443 150.78 106.123 151.16 105.403 151.16V152.36ZM8.46047 177H11.1005L11.3605 174.76H13.1605L13.4205 177H16.0605L13.9605 163H10.5605L8.46047 177ZM11.5805 172.52L12.2605 166.52L12.9405 172.52H11.5805ZM20.1991 177H22.8391V168.28L24.5591 173.36V177H27.1991V163H24.5591V168.08L22.8391 163H20.1991V177ZM31.9436 177H36.6236C37.9436 177 38.6636 176.28 38.6636 174.96V165.04C38.6636 163.72 37.9436 163 36.6236 163H31.9436V177ZM34.5836 174.76V165.24H35.7036C35.9236 165.24 36.0236 165.36 36.0236 165.56V174.44C36.0236 174.64 35.9236 174.76 35.7036 174.76H34.5836ZM48.6664 165.24H50.5664V177H53.2064V165.24H55.1064V163H48.6664V165.24ZM59.4819 177H62.1219V171.16H63.5619V177H66.2019V163H63.5619V168.92H62.1219V163H59.4819V177ZM70.9334 177H73.5734V163H70.9334V177ZM78.3225 177H80.9625V168.28L82.6825 173.36V177H85.3225V163H82.6825V168.08L80.9625 163H78.3225V177ZM92.067 177.08H93.547L94.347 176.08V177H96.747V169.44H93.267V171.68H94.107V174.84H92.987C92.787 174.84 92.667 174.72 92.667 174.52V165.48C92.667 165.28 92.787 165.16 92.987 165.16H93.787C94.007 165.16 94.107 165.28 94.107 165.48V168.28H96.747V164.96C96.747 163.64 96.027 162.92 94.707 162.92H92.067C90.747 162.92 90.027 163.64 90.027 164.96V175.04C90.027 176.36 90.747 177.08 92.067 177.08ZM103.121 177.08H106.161C107.321 177.08 107.961 176.44 107.961 175.28V171.78C107.961 171.02 107.701 170.48 107.081 170.02L104.181 167.94C104.001 167.8 103.941 167.66 103.941 167.46V165.48C103.941 165.28 104.061 165.16 104.261 165.16H105.021C105.241 165.16 105.341 165.28 105.341 165.48V168H107.861V164.72C107.861 163.56 107.221 162.92 106.061 162.92H103.141C101.981 162.92 101.341 163.56 101.341 164.72V167.96C101.341 168.72 101.621 169.26 102.241 169.7L105.121 171.8C105.301 171.94 105.361 172.08 105.361 172.28V174.52C105.361 174.72 105.261 174.84 105.041 174.84H104.241C104.041 174.84 103.921 174.72 103.921 174.52V171.8H101.321V175.28C101.321 176.44 101.961 177.08 103.121 177.08ZM11.3953 192.24H13.2953V204H15.9353V192.24H17.8353V190H11.3953V192.24ZM22.2108 204H24.8508V198.16H26.2908V204H28.9308V190H26.2908V195.92H24.8508V190H22.2108V204ZM33.6623 204H39.1423V201.76H36.3023V198H38.9423V195.76H36.3023V192.24H39.0623V190H33.6623V204ZM42.8947 190L45.3747 199.64V204H48.0147V199.64L50.4947 190H47.8147L46.6947 196L45.5747 190H42.8947ZM60.0203 192.24H61.9203V204H64.5603V192.24H66.4603V190H60.0203V192.24ZM70.8358 204H73.4758V198.16H74.9158V204H77.5558V190H74.9158V195.92H73.4758V190H70.8358V204ZM82.2873 204H84.9273V190H82.2873V204ZM89.6764 204H92.3164V195.28L94.0364 200.36V204H96.6764V190H94.0364V195.08L92.3164 190H89.6764V204ZM101.421 204H104.061V198.3L105.841 204H108.481L106.201 197L108.481 190H105.841L104.061 195.7V190H101.421V204ZM0.490627 219.24H2.39063V231H5.03063V219.24H6.93063V217H0.490627V219.24ZM11.3061 231H13.9461V225.16H15.3861V231H18.0261V217H15.3861V222.92H13.9461V217H11.3061V231ZM22.7577 231H28.2377V228.76H25.3977V225H28.0377V222.76H25.3977V219.24H28.1577V217H22.7577V231ZM31.99 217L34.47 226.64V231H37.11V226.64L39.59 217H36.91L35.79 223L34.67 217H31.99ZM51.7295 231.08H54.3695C55.6895 231.08 56.4095 230.36 56.4095 229.04V225H53.7695V228.52C53.7695 228.72 53.6695 228.84 53.4495 228.84H52.6495C52.4495 228.84 52.3295 228.72 52.3295 228.52V219.48C52.3295 219.28 52.4495 219.16 52.6495 219.16H53.4495C53.6695 219.16 53.7695 219.28 53.7695 219.48V223H56.4095V218.96C56.4095 217.64 55.6895 216.92 54.3695 216.92H51.7295C50.4095 216.92 49.6895 217.64 49.6895 218.96V229.04C49.6895 230.36 50.4095 231.08 51.7295 231.08ZM60.3667 231H63.0067L63.2667 228.76H65.0667L65.3267 231H67.9667L65.8667 217H62.4667L60.3667 231ZM63.4867 226.52L64.1667 220.52L64.8467 226.52H63.4867ZM72.1053 231H74.7453V222.28L76.4653 227.36V231H79.1053V217H76.4653V222.08L74.7453 217H72.1053V231ZM89.7741 231H94.4541C95.7741 231 96.4941 230.28 96.4941 228.96V219.04C96.4941 217.72 95.7741 217 94.4541 217H89.7741V231ZM92.4141 228.76V219.24H93.5341C93.7541 219.24 93.8541 219.36 93.8541 219.56V228.44C93.8541 228.64 93.7541 228.76 93.5341 228.76H92.4141ZM103.187 231.08H105.847C107.167 231.08 107.887 230.36 107.887 229.04V218.96C107.887 217.64 107.167 216.92 105.847 216.92H103.187C101.867 216.92 101.147 217.64 101.147 218.96V229.04C101.147 230.36 101.867 231.08 103.187 231.08ZM104.107 228.84C103.907 228.84 103.787 228.72 103.787 228.52V219.48C103.787 219.28 103.907 219.16 104.107 219.16H104.927C105.127 219.16 105.247 219.28 105.247 219.48V228.52C105.247 228.72 105.127 228.84 104.927 228.84H104.107ZM25.6741 258H30.3541C31.6741 258 32.3941 257.28 32.3941 255.96V252.64C32.3941 251.7 32.0541 251.12 31.2941 250.82C32.0541 250.52 32.3541 249.88 32.3541 249.04V246.04C32.3541 244.72 31.6341 244 30.3141 244H25.6741V258ZM28.3141 249.72V246.24H29.3541C29.6141 246.24 29.7541 246.38 29.7541 246.64V249.32C29.7541 249.58 29.6141 249.72 29.3541 249.72H28.3141ZM28.3141 255.76V251.96H29.3541C29.6141 251.96 29.7541 252.1 29.7541 252.36V255.36C29.7541 255.62 29.6141 255.76 29.3541 255.76H28.3141ZM39.127 258.1H41.707C43.047 258.1 43.767 257.38 43.767 256.04V244H41.127V255.54C41.127 255.76 41.027 255.86 40.807 255.86H40.007C39.807 255.86 39.687 255.76 39.687 255.54V244H37.047V256.04C37.047 257.38 37.787 258.1 39.127 258.1ZM48.1195 246.24H50.0195V258H52.6595V246.24H54.5595V244H48.1195V246.24ZM66.8592 258.08H69.4992C70.8192 258.08 71.5392 257.36 71.5392 256.04V252H68.8992V255.52C68.8992 255.72 68.7992 255.84 68.5792 255.84H67.7792C67.5792 255.84 67.4592 255.72 67.4592 255.52V246.48C67.4592 246.28 67.5792 246.16 67.7792 246.16H68.5792C68.7992 246.16 68.8992 246.28 68.8992 246.48V250H71.5392V245.96C71.5392 244.64 70.8192 243.92 69.4992 243.92H66.8592C65.5392 243.92 64.8192 244.64 64.8192 245.96V256.04C64.8192 257.36 65.5392 258.08 66.8592 258.08ZM75.4964 258H78.1364L78.3964 255.76H80.1964L80.4564 258H83.0964L80.9964 244H77.5964L75.4964 258ZM78.6164 253.52L79.2964 247.52L79.9764 253.52H78.6164ZM87.235 258H89.875V249.28L91.595 254.36V258H94.235V244H91.595V249.08L89.875 244H87.235V258ZM98.7195 249.36C100.34 249.36 101.24 248.34 101.24 246.66V244H98.7195V247H99.7595C99.7595 247.78 99.4395 248.16 98.7195 248.16V249.36ZM105.345 246.24H107.245V258H109.885V246.24H111.785V244H105.345V246.24Z" fill="#741097"/>
</svg>
