<svg width="177" height="169" viewBox="0 0 177 169" fill="none" xmlns="http://www.w3.org/2000/svg">
<path d="M0.828125 63.9473H16.209C26.1374 63.9473 32.8431 64.403 36.3262 65.3145C39.8418 66.2259 42.5111 67.7233 44.334 69.8066C46.1569 71.89 47.2962 74.2174 47.752 76.7891C48.2077 79.3281 48.4355 84.3411 48.4355 91.8281V119.514C48.4355 126.61 48.0938 131.363 47.4102 133.771C46.7591 136.148 45.6035 138.02 43.9434 139.387C42.2832 140.721 40.2324 141.665 37.791 142.219C35.3496 142.74 31.6712 143 26.7559 143H0.828125V63.9473ZM21.3848 77.4727V129.475C24.347 129.475 26.1699 128.889 26.8535 127.717C27.5371 126.512 27.8789 123.273 27.8789 118V87.2871C27.8789 83.7064 27.765 81.4115 27.5371 80.4023C27.3092 79.3932 26.7884 78.6608 25.9746 78.2051C25.1608 77.7168 23.6309 77.4727 21.3848 77.4727Z" fill="#CC66F0"/>
<path d="M50.5107 26.375H37.7422V33.3818C37.7422 34.8467 37.848 35.7907 38.0596 36.2139C38.2712 36.637 38.6781 36.8486 39.2803 36.8486C40.029 36.8486 40.5254 36.5719 40.7695 36.0186C41.0299 35.4489 41.1602 34.3584 41.1602 32.7471V28.4746H50.5107V30.8672C50.5107 32.8691 50.3805 34.4072 50.1201 35.4814C49.876 36.5557 49.29 37.7031 48.3623 38.9238C47.4346 40.1445 46.2546 41.0641 44.8223 41.6826C43.4062 42.2848 41.624 42.5859 39.4756 42.5859C37.3923 42.5859 35.5531 42.2848 33.958 41.6826C32.363 41.0804 31.1178 40.2585 30.2227 39.2168C29.3438 38.1589 28.7334 37.0033 28.3916 35.75C28.0498 34.4805 27.8789 32.6413 27.8789 30.2324V20.7842C27.8789 17.9521 28.2614 15.7223 29.0264 14.0947C29.7913 12.4508 31.0446 11.1976 32.7861 10.335C34.5277 9.45605 36.5296 9.0166 38.792 9.0166C41.5589 9.0166 43.8376 9.54557 45.6279 10.6035C47.4346 11.6452 48.696 13.0368 49.4121 14.7783C50.1445 16.5036 50.5107 18.9368 50.5107 22.0781V26.375ZM40.623 21.1016V18.7334C40.623 17.057 40.5335 15.9746 40.3545 15.4863C40.1755 14.998 39.8092 14.7539 39.2559 14.7539C38.5723 14.7539 38.1491 14.9655 37.9863 15.3887C37.8236 15.7956 37.7422 16.9105 37.7422 18.7334V21.1016H40.623Z" fill="#F6ED09"/>
<path d="M123.074 27.0898H102.098V22.8711C102.098 19.2773 101.883 17.0117 101.453 16.0742C101.062 15.0977 100.047 14.6094 98.4062 14.6094C97.0781 14.6094 96.082 15.0586 95.418 15.957C94.7539 16.8164 94.4219 18.125 94.4219 19.8828C94.4219 22.2656 94.5781 24.0234 94.8906 25.1562C95.2422 26.25 96.2383 27.4609 97.8789 28.7891C99.5586 30.1172 102.977 32.0508 108.133 34.5898C115.008 37.9492 119.52 41.1133 121.668 44.082C123.816 47.0508 124.891 51.3672 124.891 57.0312C124.891 63.3594 124.07 68.1445 122.43 71.3867C120.789 74.5898 118.035 77.0703 114.168 78.8281C110.34 80.5469 105.711 81.4062 100.281 81.4062C94.2656 81.4062 89.1094 80.4688 84.8125 78.5938C80.5547 76.7188 77.625 74.1797 76.0234 70.9766C74.4219 67.7734 73.6211 62.9297 73.6211 56.4453V52.6953H94.5977V57.6172C94.5977 61.7969 94.8516 64.5117 95.3594 65.7617C95.9062 67.0117 96.9609 67.6367 98.5234 67.6367C100.203 67.6367 101.375 67.2266 102.039 66.4062C102.703 65.5469 103.035 63.7695 103.035 61.0742C103.035 57.3633 102.605 55.0391 101.746 54.1016C100.848 53.1641 96.2578 50.3906 87.9766 45.7812C81.0234 41.875 76.7852 38.3398 75.2617 35.1758C73.7383 31.9727 72.9766 28.1836 72.9766 23.8086C72.9766 17.5977 73.7969 13.0273 75.4375 10.0977C77.0781 7.12891 79.8516 4.84375 83.7578 3.24219C87.7031 1.64062 92.2734 0.839844 97.4688 0.839844C102.625 0.839844 107 1.50391 110.594 2.83203C114.227 4.12109 117 5.83984 118.914 7.98828C120.867 10.1367 122.039 12.1289 122.43 13.9648C122.859 15.8008 123.074 18.6719 123.074 22.5781V27.0898Z" fill="#CC66F0"/>
<path d="M74.4707 104.663V111.875H60.252V104.663H74.4707ZM74.4707 114.644V160H60.252V114.644H74.4707Z" fill="#CC66F0"/>
<path d="M123.836 99.6846V144.597C123.836 150.661 123.689 154.587 123.396 156.374C123.133 158.132 122.151 159.992 120.452 161.955C118.753 163.947 116.38 165.456 113.333 166.481C110.315 167.536 106.507 168.063 101.907 168.063C96.2529 168.063 91.7119 167.097 88.2842 165.163C84.8564 163.259 83.084 159.494 82.9668 153.869H100.193C100.193 156.447 101.131 157.736 103.006 157.736C104.354 157.736 105.247 157.341 105.687 156.55C106.126 155.759 106.346 154.104 106.346 151.584V147.189C104.822 148.566 103.211 149.606 101.512 150.31C99.8418 151.013 98.084 151.364 96.2383 151.364C93.0449 151.364 90.4082 150.72 88.3281 149.431C86.2773 148.142 84.8711 146.457 84.1094 144.377C83.3477 142.268 82.9668 139.279 82.9668 135.412V114.23C82.9668 108.693 83.9629 104.709 85.9551 102.277C87.9473 99.8457 90.9795 98.6299 95.0518 98.6299C97.2783 98.6299 99.2998 99.084 101.116 99.9922C102.962 100.9 104.603 102.263 106.038 104.079L107.312 99.6846H123.836ZM106.038 115.153C106.038 112.487 105.877 110.788 105.555 110.056C105.262 109.323 104.588 108.957 103.533 108.957C102.508 108.957 101.775 109.382 101.336 110.231C100.926 111.052 100.721 112.692 100.721 115.153V134.753C100.721 137.36 100.882 139.06 101.204 139.851C101.526 140.612 102.2 140.993 103.226 140.993C104.397 140.993 105.159 140.524 105.511 139.587C105.862 138.649 106.038 136.525 106.038 133.215V115.153Z" fill="#F7ED09"/>
<path d="M176.801 67.9473V147H158.783L148.09 111.062V147H130.902V67.9473H148.09L159.613 103.543V67.9473H176.801Z" fill="#CC66F0"/>
</svg>
