<svg width="89" height="224" viewBox="0 0 89 224" fill="none" xmlns="http://www.w3.org/2000/svg">
<path d="M0.56 15H5.24C6.56 15 7.28 14.28 7.28 12.96V3.04C7.28 1.72 6.56 0.999999 5.24 0.999999H0.56V15ZM3.2 12.76V3.24H4.32C4.54 3.24 4.64 3.36 4.64 3.56V12.44C4.64 12.64 4.54 12.76 4.32 12.76H3.2ZM13.9725 15.08H16.6325C17.9525 15.08 18.6725 14.36 18.6725 13.04V2.96C18.6725 1.64 17.9525 0.919999 16.6325 0.919999H13.9725C12.6525 0.919999 11.9325 1.64 11.9325 2.96V13.04C11.9325 14.36 12.6525 15.08 13.9725 15.08ZM14.8925 12.84C14.6925 12.84 14.5725 12.72 14.5725 12.52V3.48C14.5725 3.28 14.6925 3.16 14.8925 3.16H15.7125C15.9125 3.16 16.0325 3.28 16.0325 3.48V12.52C16.0325 12.72 15.9125 12.84 15.7125 12.84H14.8925ZM23.3459 15H25.9859V6.28L27.7059 11.36V15H30.3459V0.999999H27.7059V6.08L25.9859 0.999999H23.3459V15ZM34.8305 6.36C36.4505 6.36 37.3505 5.34 37.3505 3.66V0.999999H34.8305V4H35.8705C35.8705 4.78 35.5505 5.16 34.8305 5.16V6.36ZM41.4555 3.24H43.3555V15H45.9955V3.24H47.8955V0.999999H41.4555V3.24ZM0.2 29.24H2.1V41H4.74V29.24H6.64V27H0.2V29.24ZM11.0155 41H13.6555V35.16H15.0955V41H17.7355V27H15.0955V32.92H13.6555V27H11.0155V41ZM22.467 41H25.107V27H22.467V41ZM29.8561 41H32.4961V32.28L34.2161 37.36V41H36.8561V27H34.2161V32.08L32.4961 27H29.8561V41ZM41.6006 41H44.2406V35.3L46.0206 41H48.6606L46.3806 34L48.6606 27H46.0206L44.2406 32.7V27H41.6006V41ZM2.56 67.08H5.22C6.54 67.08 7.26 66.36 7.26 65.04V54.96C7.26 53.64 6.54 52.92 5.22 52.92H2.56C1.24 52.92 0.52 53.64 0.52 54.96V65.04C0.52 66.36 1.24 67.08 2.56 67.08ZM3.48 64.84C3.28 64.84 3.16 64.72 3.16 64.52V55.48C3.16 55.28 3.28 55.16 3.48 55.16H4.3C4.5 55.16 4.62 55.28 4.62 55.48V64.52C4.62 64.72 4.5 64.84 4.3 64.84H3.48ZM13.9934 67.1H16.5734C17.9134 67.1 18.6334 66.38 18.6334 65.04V53H15.9934V64.54C15.9934 64.76 15.8934 64.86 15.6734 64.86H14.8734C14.6734 64.86 14.5534 64.76 14.5534 64.54V53H11.9134V65.04C11.9134 66.38 12.6534 67.1 13.9934 67.1ZM22.9859 55.24H24.8859V67H27.5259V55.24H29.4259V53H22.9859V55.24ZM35.3647 67.08H38.4047C39.5647 67.08 40.2047 66.44 40.2047 65.28V61.78C40.2047 61.02 39.9447 60.48 39.3247 60.02L36.4247 57.94C36.2447 57.8 36.1847 57.66 36.1847 57.46V55.48C36.1847 55.28 36.3047 55.16 36.5047 55.16H37.2647C37.4847 55.16 37.5847 55.28 37.5847 55.48V58H40.1047V54.72C40.1047 53.56 39.4647 52.92 38.3047 52.92H35.3847C34.2247 52.92 33.5847 53.56 33.5847 54.72V57.96C33.5847 58.72 33.8647 59.26 34.4847 59.7L37.3647 61.8C37.5447 61.94 37.6047 62.08 37.6047 62.28V64.52C37.6047 64.72 37.5047 64.84 37.2847 64.84H36.4847C36.2847 64.84 36.1647 64.72 36.1647 64.52V61.8H33.5647V65.28C33.5647 66.44 34.2047 67.08 35.3647 67.08ZM44.8038 67H47.4438V53H44.8038V67ZM52.1928 67H56.8728C58.1928 67 58.9128 66.28 58.9128 64.96V55.04C58.9128 53.72 58.1928 53 56.8728 53H52.1928V67ZM54.8328 64.76V55.24H55.9528C56.1728 55.24 56.2728 55.36 56.2728 55.56V64.44C56.2728 64.64 56.1728 64.76 55.9528 64.76H54.8328ZM63.6053 67H69.0853V64.76H66.2453V61H68.8853V58.76H66.2453V55.24H69.0053V53H63.6053V67ZM0.2 81.24H2.1V93H4.74V81.24H6.64V79H0.2V81.24ZM11.0155 93H13.6555V87.16H15.0955V93H17.7355V79H15.0955V84.92H13.6555V79H11.0155V93ZM22.467 93H27.947V90.76H25.107V87H27.747V84.76H25.107V81.24H27.867V79H22.467V93ZM44.2631 93H48.9431C50.2631 93 50.9831 92.28 50.9831 90.96V87.64C50.9831 86.7 50.6431 86.12 49.8831 85.82C50.6431 85.52 50.9431 84.88 50.9431 84.04V81.04C50.9431 79.72 50.2231 79 48.9031 79H44.2631V93ZM46.9031 84.72V81.24H47.9431C48.2031 81.24 48.3431 81.38 48.3431 81.64V84.32C48.3431 84.58 48.2031 84.72 47.9431 84.72H46.9031ZM46.9031 90.76V86.96H47.9431C48.2031 86.96 48.3431 87.1 48.3431 87.36V90.36C48.3431 90.62 48.2031 90.76 47.9431 90.76H46.9031ZM57.6561 93.08H60.3161C61.6361 93.08 62.3561 92.36 62.3561 91.04V80.96C62.3561 79.64 61.6361 78.92 60.3161 78.92H57.6561C56.3361 78.92 55.6161 79.64 55.6161 80.96V91.04C55.6161 92.36 56.3361 93.08 57.6561 93.08ZM58.5761 90.84C58.3761 90.84 58.2561 90.72 58.2561 90.52V81.48C58.2561 81.28 58.3761 81.16 58.5761 81.16H59.3961C59.5961 81.16 59.7161 81.28 59.7161 81.48V90.52C59.7161 90.72 59.5961 90.84 59.3961 90.84H58.5761ZM66.3156 93H69.0556L70.2756 88.12L71.4956 93H74.2356L72.0356 86L74.2356 79H71.4956L70.2756 83.84L69.0556 79H66.3156L68.5156 86L66.3156 93ZM0.2 107.24H2.1V119H4.74V107.24H6.64V105H0.2V107.24ZM11.0155 119H13.6555V113.16H15.0955V119H17.7355V105H15.0955V110.92H13.6555V105H11.0155V119ZM22.467 119H25.107V105H22.467V119ZM29.8561 119H32.4961V110.28L34.2161 115.36V119H36.8561V105H34.2161V110.08L32.4961 105H29.8561V119ZM41.6006 119H44.2406V113.3L46.0206 119H48.6606L46.3806 112L48.6606 105H46.0206L44.2406 110.7V105H41.6006V119ZM0.06 131L2 145H5.14L5.92 137.38L6.72 145H9.84L11.78 131H9.14L8.08 140.18L7.16 131H4.68L3.76 140.18L2.7 131H0.06ZM16.0155 145H18.6555V139.16H20.0955V145H22.7355V131H20.0955V136.92H18.6555V131H16.0155V145ZM26.887 145H29.527L29.787 142.76H31.587L31.847 145H34.487L32.387 131H28.987L26.887 145ZM30.007 140.52L30.687 134.52L31.367 140.52H30.007ZM37.4062 133.24H39.3062V145H41.9462V133.24H43.8462V131H37.4062V133.24ZM59.2572 131L61.7372 140.64V145H64.3772V140.64L66.8572 131H64.1772L63.0572 137L61.9372 131H59.2572ZM72.8186 145.08H75.4786C76.7986 145.08 77.5186 144.36 77.5186 143.04V132.96C77.5186 131.64 76.7986 130.92 75.4786 130.92H72.8186C71.4986 130.92 70.7786 131.64 70.7786 132.96V143.04C70.7786 144.36 71.4986 145.08 72.8186 145.08ZM73.7386 142.84C73.5386 142.84 73.4186 142.72 73.4186 142.52V133.48C73.4186 133.28 73.5386 133.16 73.7386 133.16H74.5586C74.7586 133.16 74.8786 133.28 74.8786 133.48V142.52C74.8786 142.72 74.7586 142.84 74.5586 142.84H73.7386ZM84.252 145.1H86.832C88.172 145.1 88.892 144.38 88.892 143.04V131H86.252V142.54C86.252 142.76 86.152 142.86 85.932 142.86H85.132C84.932 142.86 84.812 142.76 84.812 142.54V131H82.172V143.04C82.172 144.38 82.912 145.1 84.252 145.1ZM2.56 171.08H5.2C6.52 171.08 7.24 170.36 7.24 169.04V165H4.6V168.52C4.6 168.72 4.5 168.84 4.28 168.84H3.48C3.28 168.84 3.16 168.72 3.16 168.52V159.48C3.16 159.28 3.28 159.16 3.48 159.16H4.28C4.5 159.16 4.6 159.28 4.6 159.48V163H7.24V158.96C7.24 157.64 6.52 156.92 5.2 156.92H2.56C1.24 156.92 0.52 157.64 0.52 158.96V169.04C0.52 170.36 1.24 171.08 2.56 171.08ZM11.1972 171H13.8372L14.0972 168.76H15.8972L16.1572 171H18.7972L16.6972 157H13.2972L11.1972 171ZM14.3172 166.52L14.9972 160.52L15.6772 166.52H14.3172ZM22.9358 171H25.5758V162.28L27.2958 167.36V171H29.9358V157H27.2958V162.08L25.5758 157H22.9358V171ZM0.56 197H5.24C6.56 197 7.28 196.28 7.28 194.96V185.04C7.28 183.72 6.56 183 5.24 183H0.56V197ZM3.2 194.76V185.24H4.32C4.54 185.24 4.64 185.36 4.64 185.56V194.44C4.64 194.64 4.54 194.76 4.32 194.76H3.2ZM13.9725 197.08H16.6325C17.9525 197.08 18.6725 196.36 18.6725 195.04V184.96C18.6725 183.64 17.9525 182.92 16.6325 182.92H13.9725C12.6525 182.92 11.9325 183.64 11.9325 184.96V195.04C11.9325 196.36 12.6525 197.08 13.9725 197.08ZM14.8925 194.84C14.6925 194.84 14.5725 194.72 14.5725 194.52V185.48C14.5725 185.28 14.6925 185.16 14.8925 185.16H15.7125C15.9125 185.16 16.0325 185.28 16.0325 185.48V194.52C16.0325 194.72 15.9125 194.84 15.7125 194.84H14.8925ZM34.6944 183L36.6344 197H39.7744L40.5544 189.38L41.3544 197H44.4744L46.4144 183H43.7744L42.7144 192.18L41.7944 183H39.3144L38.3944 192.18L37.3344 183H34.6944ZM50.6498 197H53.2898V183H50.6498V197ZM57.6789 185.24H59.5789V197H62.2189V185.24H64.1189V183H57.6789V185.24ZM68.4944 197H71.1344V191.16H72.5744V197H75.2144V183H72.5744V188.92H71.1344V183H68.4944V197ZM0.2 211.24H2.1V223H4.74V211.24H6.64V209H0.2V211.24ZM11.0155 223H13.6555V217.16H15.0955V223H17.7355V209H15.0955V214.92H13.6555V209H11.0155V223ZM22.467 223H27.947V220.76H25.107V217H27.747V214.76H25.107V211.24H27.867V209H22.467V223ZM44.2631 223H48.9431C50.2631 223 50.9831 222.28 50.9831 220.96V217.64C50.9831 216.7 50.6431 216.12 49.8831 215.82C50.6431 215.52 50.9431 214.88 50.9431 214.04V211.04C50.9431 209.72 50.2231 209 48.9031 209H44.2631V223ZM46.9031 214.72V211.24H47.9431C48.2031 211.24 48.3431 211.38 48.3431 211.64V214.32C48.3431 214.58 48.2031 214.72 47.9431 214.72H46.9031ZM46.9031 220.76V216.96H47.9431C48.2031 216.96 48.3431 217.1 48.3431 217.36V220.36C48.3431 220.62 48.2031 220.76 47.9431 220.76H46.9031ZM57.6561 223.08H60.3161C61.6361 223.08 62.3561 222.36 62.3561 221.04V210.96C62.3561 209.64 61.6361 208.92 60.3161 208.92H57.6561C56.3361 208.92 55.6161 209.64 55.6161 210.96V221.04C55.6161 222.36 56.3361 223.08 57.6561 223.08ZM58.5761 220.84C58.3761 220.84 58.2561 220.72 58.2561 220.52V211.48C58.2561 211.28 58.3761 211.16 58.5761 211.16H59.3961C59.5961 211.16 59.7161 211.28 59.7161 211.48V220.52C59.7161 220.72 59.5961 220.84 59.3961 220.84H58.5761ZM66.3156 223H69.0556L70.2756 218.12L71.4956 223H74.2356L72.0356 216L74.2356 209H71.4956L70.2756 213.84L69.0556 209H66.3156L68.5156 216L66.3156 223Z" fill="#741097"/>
</svg>
