<svg width="1497" height="507" viewBox="0 0 1497 507" fill="none" xmlns="http://www.w3.org/2000/svg">
<path d="M0.5 504H144.7C185.3 504 207.7 481.6 207.7 441V306.6C207.7 280.7 197.2 262.5 169.2 252.7C196.5 242.2 206.3 225.4 206.3 200.2V77C206.3 36.4 183.9 14 143.3 14H0.5V504ZM56.5 226.8V67.2H137.7C146.8 67.2 151.7 72.1 151.7 81.2V212.8C151.7 221.9 146.8 226.8 137.7 226.8H56.5ZM56.5 450.8V280H137.7C146.8 280 151.7 284.9 151.7 294V436.8C151.7 445.9 146.8 450.8 137.7 450.8H56.5Z" fill="white"/>
<path d="M244.084 504H300.084L316.184 392H409.984L426.084 504H482.084L408.584 14H317.584L244.084 504ZM323.884 338.8L363.084 67.2L402.284 338.8H323.884Z" fill="white"/>
<path d="M525.5 504H581.5V263.9L684.4 504H740.4L635.4 259L740.4 14H684.4L581.5 254.1V14H525.5V504Z" fill="white"/>
<path d="M777.746 504H949.946V450.8H833.746V281.4H942.946V228.2H833.746V67.2H947.146V14H777.746V504Z" fill="white"/>
<path d="M1083.91 56H1137.11V0H1083.91V56ZM1083.91 504H1137.11V112H1083.91V504Z" fill="white"/>
<path d="M1172.29 161H1207.29V443.8C1207.29 484.4 1229.69 506.8 1270.29 506.8H1299.69V457.8H1271.69C1264.69 457.8 1260.49 453.6 1260.49 446.6V161H1313.69V112H1260.49V44.8H1207.29V112H1172.29V161Z" fill="white"/>
<path d="M1441.6 392H1496.2V14H1441.6V392ZM1441.6 504H1496.2V427H1441.6V504Z" fill="white"/>
</svg>
