<svg width="75" height="75" viewBox="0 0 75 75" fill="none" xmlns="http://www.w3.org/2000/svg">
<path d="M37.5 28.125C37.5 25 39.7312 21.875 44.1969 21.875C46.5648 21.875 48.8357 20.9344 50.51 19.26C52.1844 17.5857 53.125 15.3148 53.125 12.9469V10.9375M25 28.125V26.5625C25 24.0761 25.9877 21.6915 27.7459 19.9334C29.504 18.1752 31.8886 17.1875 34.375 17.1875C36.0326 17.1875 37.6223 16.529 38.7944 15.3569C39.9665 14.1848 40.625 12.5951 40.625 10.9375V9.375M53.125 36.25V46.875C53.125 51.8478 51.1496 56.6169 47.6333 60.1333C44.1169 63.6496 39.3478 65.625 34.375 65.625H28.125C23.1522 65.625 18.3831 63.6496 14.8667 60.1333C11.3504 56.6169 9.375 51.8478 9.375 46.875V36.25C9.375 35.7527 9.57254 35.2758 9.92417 34.9242C10.2758 34.5725 10.7527 34.375 11.25 34.375H51.25C51.7473 34.375 52.2242 34.5725 52.5758 34.9242C52.9275 35.2758 53.125 35.7527 53.125 36.25Z" stroke="#F1D37D" stroke-width="1.5" stroke-linecap="round" stroke-linejoin="round"/>
<path d="M50 34.375H57.8125C59.8845 34.375 61.8716 35.1981 63.3368 36.6632C64.8019 38.1284 65.625 40.1155 65.625 42.1875C65.625 44.2595 64.8019 46.2466 63.3368 47.7118C61.8716 49.1769 59.8845 50 57.8125 50H53.125" stroke="#F1D37D" stroke-width="1.5" stroke-linecap="round" stroke-linejoin="round"/>
</svg>
