<svg width="3431" height="496" viewBox="0 0 3431 496" fill="none" xmlns="http://www.w3.org/2000/svg">
<path d="M63 495.6H144.2C184.8 495.6 207.2 473.2 207.2 432.6V310.8H151.2V428.4C151.2 437.5 146.3 442.4 137.2 442.4H70C60.9 442.4 56 437.5 56 428.4V67.2C56 58.1 60.9 53.2 70 53.2H137.2C146.3 53.2 151.2 58.1 151.2 67.2V184.8H207.2V63C207.2 22.4 184.8 0 144.2 0H63C22.4 0 0 22.4 0 63V432.6C0 473.2 22.4 495.6 63 495.6Z" fill="white"/>
<path d="M231.831 2.80001L322.831 317.8V492.8H378.831V317.8L469.831 2.80001H413.831L350.831 227.5L287.831 2.80001H231.831Z" fill="white"/>
<path d="M560.656 495.6H641.856C682.456 495.6 704.856 473.2 704.856 432.6V310.8H648.856V428.4C648.856 437.5 643.956 442.4 634.856 442.4H567.656C558.556 442.4 553.656 437.5 553.656 428.4V67.2C553.656 58.1 558.556 53.2 567.656 53.2H634.856C643.956 53.2 648.856 58.1 648.856 67.2V184.8H704.856V63C704.856 22.4 682.456 0 641.856 0H560.656C520.056 0 497.656 22.4 497.656 63V432.6C497.656 473.2 520.056 495.6 560.656 495.6Z" fill="white"/>
<path d="M762.923 492.8H932.323V439.6H818.923V2.80001H762.923V492.8Z" fill="white"/>
<path d="M974.154 492.8H1146.35V439.6H1030.15V270.2H1139.35V217H1030.15V56H1143.55V2.80001H974.154V492.8Z" fill="white"/>
<path d="M1194.27 492.8H1338.47C1379.07 492.8 1401.47 470.4 1401.47 429.8V295.4C1401.47 269.5 1390.97 251.3 1362.97 241.5C1390.27 231 1400.07 214.2 1400.07 189V65.8C1400.07 25.2 1377.67 2.80001 1337.07 2.80001H1194.27V492.8ZM1250.27 215.6V56H1331.47C1340.57 56 1345.47 60.9 1345.47 70V201.6C1345.47 210.7 1340.57 215.6 1331.47 215.6H1250.27ZM1250.27 439.6V268.8H1331.47C1340.57 268.8 1345.47 273.7 1345.47 282.8V425.6C1345.47 434.7 1340.57 439.6 1331.47 439.6H1250.27Z" fill="white"/>
<path d="M1460.87 492.8H1633.07V439.6H1516.87V270.2H1626.07V217H1516.87V56H1630.27V2.80001H1460.87V492.8Z" fill="white"/>
<path d="M1742.59 495.6H1823.79C1864.39 495.6 1886.79 473.2 1886.79 432.6V310.8H1830.79V428.4C1830.79 437.5 1825.89 442.4 1816.79 442.4H1749.59C1740.49 442.4 1735.59 437.5 1735.59 428.4V67.2C1735.59 58.1 1740.49 53.2 1749.59 53.2H1816.79C1825.89 53.2 1830.79 58.1 1830.79 67.2V184.8H1886.79V63C1886.79 22.4 1864.39 0 1823.79 0H1742.59C1701.99 0 1679.59 22.4 1679.59 63V432.6C1679.59 473.2 1701.99 495.6 1742.59 495.6Z" fill="white"/>
<path d="M1944.86 492.8H2000.86V275.8H2096.06V492.8H2152.06V2.80001H2096.06V222.6H2000.86V2.80001H1944.86V492.8Z" fill="white"/>
<path d="M2276.48 495.6H2359.08C2399.68 495.6 2422.08 473.2 2422.08 432.6V63C2422.08 22.4 2399.68 0 2359.08 0H2276.48C2235.88 0 2213.48 22.4 2213.48 63V432.6C2213.48 473.2 2235.88 495.6 2276.48 495.6ZM2283.48 442.4C2274.38 442.4 2269.48 437.5 2269.48 428.4V67.2C2269.48 58.1 2274.38 53.2 2283.48 53.2H2352.08C2361.18 53.2 2366.08 58.1 2366.08 67.2V428.4C2366.08 437.5 2361.18 442.4 2352.08 442.4H2283.48Z" fill="white"/>
<path d="M2477.23 492.8H2531.83V415.8H2477.23V492.8Z" fill="white"/>
<path d="M2650.4 495.6H2731.6C2772.2 495.6 2794.6 473.2 2794.6 432.6V310.8H2738.6V428.4C2738.6 437.5 2733.7 442.4 2724.6 442.4H2657.4C2648.3 442.4 2643.4 437.5 2643.4 428.4V67.2C2643.4 58.1 2648.3 53.2 2657.4 53.2H2724.6C2733.7 53.2 2738.6 58.1 2738.6 67.2V184.8H2794.6V63C2794.6 22.4 2772.2 0 2731.6 0H2650.4C2609.8 0 2587.4 22.4 2587.4 63V432.6C2587.4 473.2 2609.8 495.6 2650.4 495.6Z" fill="white"/>
<path d="M2914.27 495.6H2996.87C3037.47 495.6 3059.87 473.2 3059.87 432.6V63C3059.87 22.4 3037.47 0 2996.87 0H2914.27C2873.67 0 2851.27 22.4 2851.27 63V432.6C2851.27 473.2 2873.67 495.6 2914.27 495.6ZM2921.27 442.4C2912.17 442.4 2907.27 437.5 2907.27 428.4V67.2C2907.27 58.1 2912.17 53.2 2921.27 53.2H2989.87C2998.97 53.2 3003.87 58.1 3003.87 67.2V428.4C3003.87 437.5 2998.97 442.4 2989.87 442.4H2921.27Z" fill="white"/>
<path d="M3121.32 492.8H3177.32V91.7L3240.32 492.8H3311.72L3374.72 91.7V492.8H3430.72V2.80001H3337.62L3276.02 422.1L3213.72 2.80001H3121.32V492.8Z" fill="white"/>
</svg>
