<svg width="3154" height="496" viewBox="0 0 3154 496" fill="none" xmlns="http://www.w3.org/2000/svg">
<path d="M0.5 493H56.5V91.9002L119.5 493H190.9L253.9 91.9002V493H309.9V3.0002H216.8L155.2 422.3L92.9 3.0002H0.5V493Z" fill="#070707"/>
<path d="M373.059 493H429.059V3.0002H373.059V493Z" fill="#070707"/>
<path d="M550.104 495.8H631.304C671.904 495.8 694.304 473.4 694.304 432.8V313.8C694.304 291.4 686.604 276 668.404 262.7L553.604 180.1C547.304 175.2 545.204 170.3 545.204 163.3V67.4002C545.204 58.3002 550.104 53.4002 559.204 53.4002H622.204C631.304 53.4002 636.204 58.3002 636.204 67.4002V178H692.204V63.2002C692.204 22.6002 669.804 0.200195 629.204 0.200195H552.204C511.604 0.200195 489.204 22.6002 489.204 63.2002V168.9C489.204 191.3 496.904 206.7 515.104 220L629.904 303.3C636.204 308.2 638.304 313.1 638.304 320.1V428.6C638.304 437.7 633.404 442.6 624.304 442.6H557.104C548.004 442.6 543.104 437.7 543.104 428.6V311H487.104V432.8C487.104 473.4 509.504 495.8 550.104 495.8Z" fill="#070707"/>
<path d="M814.053 495.8H895.253C935.853 495.8 958.253 473.4 958.253 432.8V311H902.253V428.6C902.253 437.7 897.353 442.6 888.253 442.6H821.053C811.953 442.6 807.053 437.7 807.053 428.6V67.4002C807.053 58.3002 811.953 53.4002 821.053 53.4002H888.253C897.353 53.4002 902.253 58.3002 902.253 67.4002V185H958.253V63.2002C958.253 22.6002 935.853 0.200195 895.253 0.200195H814.053C773.453 0.200195 751.053 22.6002 751.053 63.2002V432.8C751.053 473.4 773.453 495.8 814.053 495.8Z" fill="#070707"/>
<path d="M1016.32 493H1188.52V439.8H1072.32V270.4H1181.52V217.2H1072.32V56.2002H1185.72V3.0002H1016.32V493Z" fill="#070707"/>
<path d="M1236.44 493H1405.84V439.8H1292.44V3.0002H1236.44V493Z" fill="#070707"/>
<path d="M1447.67 493H1617.07V439.8H1503.67V3.0002H1447.67V493Z" fill="#070707"/>
<path d="M1632.46 493H1688.46L1704.56 381H1798.36L1814.46 493H1870.46L1796.96 3.0002H1705.96L1632.46 493ZM1712.26 327.8L1751.46 56.2002L1790.66 327.8H1712.26Z" fill="#070707"/>
<path d="M1913.88 493H1969.88V131.8L2074.88 379.6V493H2130.88V3.0002H2074.88V250.8L1969.88 3.0002H1913.88V493Z" fill="#070707"/>
<path d="M2194.15 493H2366.35V439.8H2250.15V270.4H2359.35V217.2H2250.15V56.2002H2363.55V3.0002H2194.15V493Z" fill="#070707"/>
<path d="M2475.87 495.8H2558.47C2599.07 495.8 2621.47 473.4 2621.47 432.8V63.2002C2621.47 22.6002 2599.07 0.200195 2558.47 0.200195H2475.87C2435.27 0.200195 2412.87 22.6002 2412.87 63.2002V432.8C2412.87 473.4 2435.27 495.8 2475.87 495.8ZM2482.87 442.6C2473.77 442.6 2468.87 437.7 2468.87 428.6V67.4002C2468.87 58.3002 2473.77 53.4002 2482.87 53.4002H2551.47C2560.57 53.4002 2565.47 58.3002 2565.47 67.4002V428.6C2565.47 437.7 2560.57 442.6 2551.47 442.6H2482.87Z" fill="#070707"/>
<path d="M2745.22 495.8H2826.42C2867.02 495.8 2889.42 473.4 2889.42 432.8V3.0002H2833.42V428.6C2833.42 437.7 2828.52 442.6 2819.42 442.6H2752.22C2743.12 442.6 2738.22 437.7 2738.22 428.6V3.0002H2682.22V432.8C2682.22 473.4 2704.62 495.8 2745.22 495.8Z" fill="#070707"/>
<path d="M3009.67 495.8H3090.87C3131.47 495.8 3153.87 473.4 3153.87 432.8V313.8C3153.87 291.4 3146.17 276 3127.97 262.7L3013.17 180.1C3006.87 175.2 3004.77 170.3 3004.77 163.3V67.4002C3004.77 58.3002 3009.67 53.4002 3018.77 53.4002H3081.77C3090.87 53.4002 3095.77 58.3002 3095.77 67.4002V178H3151.77V63.2002C3151.77 22.6002 3129.37 0.200195 3088.77 0.200195H3011.77C2971.17 0.200195 2948.77 22.6002 2948.77 63.2002V168.9C2948.77 191.3 2956.47 206.7 2974.67 220L3089.47 303.3C3095.77 308.2 3097.87 313.1 3097.87 320.1V428.6C3097.87 437.7 3092.97 442.6 3083.87 442.6H3016.67C3007.57 442.6 3002.67 437.7 3002.67 428.6V311H2946.67V432.8C2946.67 473.4 2969.07 495.8 3009.67 495.8Z" fill="#070707"/>
</svg>
