<svg width="2775" height="496" viewBox="0 0 2775 496" fill="none" xmlns="http://www.w3.org/2000/svg">
<path d="M63.6 495.8H144.8C185.4 495.8 207.8 473.4 207.8 432.8V313.8C207.8 291.4 200.1 276 181.9 262.7L67.1 180.1C60.8 175.2 58.7 170.3 58.7 163.3V67.4002C58.7 58.3002 63.6 53.4002 72.7 53.4002H135.7C144.8 53.4002 149.7 58.3002 149.7 67.4002V178H205.7V63.2002C205.7 22.6002 183.3 0.200195 142.7 0.200195H65.7C25.1 0.200195 2.70001 22.6002 2.70001 63.2002V168.9C2.70001 191.3 10.4 206.7 28.6 220L143.4 303.3C149.7 308.2 151.8 313.1 151.8 320.1V428.6C151.8 437.7 146.9 442.6 137.8 442.6H70.6C61.5 442.6 56.6 437.7 56.6 428.6V311H0.600006V432.8C0.600006 473.4 23 495.8 63.6 495.8Z" fill="#070707"/>
<path d="M234.613 3.0002L308.113 493H387.913L427.113 87.7002L466.313 493H546.113L619.613 3.0002H563.613L506.913 421.6L467.713 3.0002H386.513L347.313 421.6L290.613 3.0002H234.613Z" fill="#070707"/>
<path d="M658.332 493H830.532V439.8H714.332V270.4H823.532V217.2H714.332V56.2002H827.732V3.0002H658.332V493Z" fill="#070707"/>
<path d="M878.449 493H1050.65V439.8H934.449V270.4H1043.65V217.2H934.449V56.2002H1047.85V3.0002H878.449V493Z" fill="#070707"/>
<path d="M1067.31 56.2002H1139.41V493H1195.41V56.2002H1267.51V3.0002H1067.31V56.2002Z" fill="#070707"/>
<path d="M1367.9 495.8H1449.1C1489.7 495.8 1512.1 473.4 1512.1 432.8V313.8C1512.1 291.4 1504.4 276 1486.2 262.7L1371.4 180.1C1365.1 175.2 1363 170.3 1363 163.3V67.4002C1363 58.3002 1367.9 53.4002 1377 53.4002H1440C1449.1 53.4002 1454 58.3002 1454 67.4002V178H1510V63.2002C1510 22.6002 1487.6 0.200195 1447 0.200195H1370C1329.4 0.200195 1307 22.6002 1307 63.2002V168.9C1307 191.3 1314.7 206.7 1332.9 220L1447.7 303.3C1454 308.2 1456.1 313.1 1456.1 320.1V428.6C1456.1 437.7 1451.2 442.6 1442.1 442.6H1374.9C1365.8 442.6 1360.9 437.7 1360.9 428.6V311H1304.9V432.8C1304.9 473.4 1327.3 495.8 1367.9 495.8Z" fill="#070707"/>
<path d="M1631.85 495.8H1713.05C1753.65 495.8 1776.05 473.4 1776.05 432.8V311H1720.05V428.6C1720.05 437.7 1715.15 442.6 1706.05 442.6H1638.85C1629.75 442.6 1624.85 437.7 1624.85 428.6V67.4002C1624.85 58.3002 1629.75 53.4002 1638.85 53.4002H1706.05C1715.15 53.4002 1720.05 58.3002 1720.05 67.4002V185H1776.05V63.2002C1776.05 22.6002 1753.65 0.200195 1713.05 0.200195H1631.85C1591.25 0.200195 1568.85 22.6002 1568.85 63.2002V432.8C1568.85 473.4 1591.25 495.8 1631.85 495.8Z" fill="#070707"/>
<path d="M1811.1 493H1867.1L1883.2 381H1977L1993.1 493H2049.1L1975.6 3.0002H1884.6L1811.1 493ZM1890.9 327.8L1930.1 56.2002L1969.3 327.8H1890.9Z" fill="#070707"/>
<path d="M2092.51 493H2148.51V301.2H2233.91C2274.51 301.2 2296.91 278.8 2296.91 238.2V66.0002C2296.91 25.4002 2274.51 3.0002 2233.91 3.0002H2092.51V493ZM2148.51 248V56.2002H2226.91C2236.01 56.2002 2240.91 61.1002 2240.91 70.2002V234C2240.91 243.1 2236.01 248 2226.91 248H2148.51Z" fill="#070707"/>
<path d="M2351.59 493H2523.79V439.8H2407.59V270.4H2516.79V217.2H2407.59V56.2002H2520.99V3.0002H2351.59V493Z" fill="#070707"/>
<path d="M2629.81 495.8H2711.01C2751.61 495.8 2774.01 473.4 2774.01 432.8V313.8C2774.01 291.4 2766.31 276 2748.11 262.7L2633.31 180.1C2627.01 175.2 2624.91 170.3 2624.91 163.3V67.4002C2624.91 58.3002 2629.81 53.4002 2638.91 53.4002H2701.91C2711.01 53.4002 2715.91 58.3002 2715.91 67.4002V178H2771.91V63.2002C2771.91 22.6002 2749.51 0.200195 2708.91 0.200195H2631.91C2591.31 0.200195 2568.91 22.6002 2568.91 63.2002V168.9C2568.91 191.3 2576.61 206.7 2594.81 220L2709.61 303.3C2715.91 308.2 2718.01 313.1 2718.01 320.1V428.6C2718.01 437.7 2713.11 442.6 2704.01 442.6H2636.81C2627.71 442.6 2622.81 437.7 2622.81 428.6V311H2566.81V432.8C2566.81 473.4 2589.21 495.8 2629.81 495.8Z" fill="#070707"/>
</svg>
